<svg viewBox="0 0 1022.184 1054.968" xmlns="http://www.w3.org/2000/svg"><path d="M510.865 194.877c162.388.18 293.98 131.773 294.16 294.144v173.563c0 162.46-131.7 294.16-294.16 294.16s-294.16-131.7-294.16-294.16V489.04c.18-162.39 131.772-293.98 294.143-294.162h.018zm0 693.72c124.763-.154 225.86-101.252 226.016-226v-173.56c0-124.824-101.19-226.015-226.015-226.015S284.85 364.212 284.85 489.038v173.544c.154 124.763 101.252 225.86 226 226.016h.015zm226.47-520.176H858.18c90.535.104 163.9 73.47 164.004 163.995v86.782c-.103 90.535-73.468 163.9-163.994 164.004H737.335zM858.18 715.055c52.92-.052 95.806-42.938 95.858-95.853v-86.776c-.052-52.92-42.938-95.806-95.853-95.858H805.48v278.488zM284.85 783.2H164.003C73.47 783.097.104 709.732 0 619.206v-86.782c.103-90.535 73.468-163.9 163.994-164.004H284.85zM164.004 436.566c-52.92.052-95.806 42.938-95.858 95.853v86.776c.052 52.92 42.938 95.806 95.853 95.858h52.704V436.566zm728.248-34.072h-68.146c0-172.873-140.142-313.015-313.015-313.015S198.077 229.62 198.077 402.493H129.93c0-210.51 170.652-381.16 381.162-381.16s381.16 170.65 381.16 381.16zm-251.23 642.84v-68.147c100.925-.154 182.723-81.825 183.084-182.686v-45.464h68.146v45.43c-.44 138.5-112.7 250.635-251.208 250.866h-.022z"/></svg>