<svg viewBox="0 0 32 32" xmlns="http://www.w3.org/2000/svg"><path d="m29.92 16.61-3-7a1 1 0 0 0 -.92-.61h-3v-2a1 1 0 0 0 -1-1h-19a1 1 0 0 0 -1 1v17a1 1 0 0 0 1 1h2.14a4 4 0 0 0 7.72 0h6.28a4 4 0 0 0 7.72 0h2.14a1 1 0 0 0 1-1v-7a1 1 0 0 0 -.08-.39zm-6.92-5.61h2.34l2.14 5h-4.48zm-14 15a2 2 0 1 1 2-2 2 2 0 0 1 -2 2zm10.14-3h-6.28a4 4 0 0 0 -7.72 0h-1.14v-15h17v12.56a4 4 0 0 0 -1.86 2.44zm3.86 3a2 2 0 1 1 2-2 2 2 0 0 1 -2 2zm5-3h-1.14a4 4 0 0 0 -3.86-3v-2h5z"/><path d="m0 0h32v32h-32z" fill="none"/></svg>