<svg fill="none" height="25" viewBox="0 0 25 25" width="25" xmlns="http://www.w3.org/2000/svg"><path d="m12.7156 6.46569c.4142 0 .75-.33578.75-.75 0-.41421-.3358-.75-.75-.75zm-5.45893 11.75121c.29401.2917.76888.2899 1.06065-.0041s.28995-.7689-.00407-1.0607zm3.83483-9.91723c-.2297.34465-.1366.8103.2081 1.04006.3446.22977.8102.13664 1.04-.20801zm2.6241-2.58398.624.41603c.2298-.34465.1366-.8103-.208-1.04006zm-2.584-2.62403c-.3446-.22977-.8103-.13664-1.0401.20801-.22973.34465-.1366.8103.2081 1.04006zm1.584 15.84284c-.4142 0-.75.3358-.75.75s.3358.75.75.75zm5.4589-11.75119c-.294-.29177-.7689-.28995-1.0607.00407-.2917.29401-.2899.76888.0041 1.06065zm-3.8349 9.94839c.2298-.3446.1366-.8103-.208-1.04-.3446-.2298-.8103-.1367-1.0401.208zm-2.624 2.584-.6241-.416c-.2297.3446-.1366.8103.2081 1.04zm2.584 2.624c.3446.2298.8102.1367 1.04-.208.2298-.3446.1366-.8103-.208-1.04zm-1.584-17.37401c-4.28023 0-7.75002 3.4698-7.75002 7.75001h1.5c0-3.45179 2.79822-6.25001 6.25002-6.25001zm-7.75002 7.75001c0 2.1507.87702 4.0979 2.29109 5.5012l1.05658-1.0648c-1.14191-1.1331-1.84767-2.7017-1.84767-4.4364zm7.37402-3.58398 2-3-1.2481-.83205-2 3zm1.792-4.04006-3-2-.832 1.24807 3 2zm-1.416 15.34284c4.2802 0 7.75-3.4698 7.75-7.75h-1.5c0 3.4518-2.7982 6.25-6.25 6.25zm7.75-7.75c0-2.1507-.877-4.09792-2.2911-5.50119l-1.0566 1.06472c1.1419 1.13319 1.8477 2.70167 1.8477 4.43647zm-7.3741 3.6152-2 3 1.2481.832 2-3zm-1.7919 4.04 3 2 .832-1.248-3-2z" fill="#000"/></svg>